<svg width="112" height="45" viewBox="0 0 112 45" fill="none" xmlns="http://www.w3.org/2000/svg">
<ellipse cx="17.5" cy="22.4" rx="7" ry="7" fill="#58707F"/>
<path d="M19.1346 18.2375V26.2H17.2917V20.3156L15.476 20.8461V19.4461L18.9651 18.2375H19.1346Z" fill="white"/>
<ellipse cx="37.1" cy="22.4" rx="7" ry="7" fill="#58707F"/>
<path d="M40.211 24.7781V26.2H34.6548V24.9969L37.2142 22.3063C37.4402 22.0474 37.6225 21.8159 37.761 21.6117C37.8996 21.4039 37.9998 21.2162 38.0618 21.0484C38.1274 20.8807 38.1603 20.7294 38.1603 20.5945C38.1603 20.3649 38.1256 20.1734 38.0564 20.0203C37.9907 19.8636 37.8923 19.7451 37.761 19.6649C37.6334 19.5846 37.4748 19.5445 37.2853 19.5445C37.0957 19.5445 36.9298 19.5992 36.7876 19.7086C36.6454 19.818 36.5342 19.9675 36.454 20.157C36.3774 20.3466 36.3392 20.5599 36.3392 20.7969H34.4907C34.4907 20.3083 34.6092 19.8617 34.8462 19.457C35.0868 19.0524 35.4204 18.7297 35.847 18.4891C36.2735 18.2448 36.7675 18.1227 37.329 18.1227C37.916 18.1227 38.4082 18.2138 38.8056 18.3961C39.203 18.5784 39.5019 18.8427 39.7024 19.1891C39.9066 19.5318 40.0087 19.9456 40.0087 20.4305C40.0087 20.7076 39.9649 20.9737 39.8774 21.2289C39.7899 21.4841 39.6642 21.7375 39.5001 21.9891C39.336 22.237 39.1355 22.4922 38.8985 22.7547C38.6652 23.0172 38.3991 23.2961 38.1001 23.5914L37.072 24.7781H40.211Z" fill="white"/>
<ellipse cx="56.7002" cy="22.4" rx="7" ry="7" fill="#58707F"/>
<path d="M55.9338 21.4477H56.8307C57.0604 21.4477 57.2481 21.4076 57.3939 21.3274C57.5434 21.2435 57.6546 21.1268 57.7275 20.9774C57.8005 20.8242 57.8369 20.6438 57.8369 20.4359C57.8369 20.2755 57.8023 20.1279 57.733 19.993C57.6674 19.8581 57.5653 19.7505 57.4268 19.6703C57.2882 19.5865 57.1114 19.5445 56.8963 19.5445C56.7505 19.5445 56.6083 19.5755 56.4697 19.6375C56.3312 19.6958 56.2163 19.7797 56.1252 19.8891C56.0377 19.9984 55.9939 20.1315 55.9939 20.2883H54.1455C54.1455 19.8362 54.2695 19.4498 54.5174 19.1289C54.7689 18.8044 55.0989 18.5565 55.5072 18.3852C55.9192 18.2102 56.3622 18.1227 56.8361 18.1227C57.4012 18.1227 57.8971 18.2102 58.3236 18.3852C58.7502 18.5565 59.082 18.8117 59.3189 19.1508C59.5596 19.4862 59.6799 19.9018 59.6799 20.3977C59.6799 20.6711 59.6161 20.9281 59.4885 21.1688C59.3609 21.4094 59.1822 21.6208 58.9525 21.8031C58.7229 21.9854 58.4531 22.1294 58.1432 22.2352C57.8369 22.3373 57.5015 22.3883 57.1369 22.3883H55.9338V21.4477ZM55.9338 22.8203V21.9016H57.1369C57.5343 21.9016 57.8971 21.9471 58.2252 22.0383C58.5533 22.1258 58.8359 22.257 59.0729 22.432C59.3098 22.607 59.4921 22.824 59.6197 23.0828C59.7473 23.338 59.8111 23.6315 59.8111 23.9633C59.8111 24.3352 59.7364 24.6669 59.5869 24.9586C59.4374 25.2503 59.2278 25.4964 58.958 25.6969C58.6882 25.8974 58.3729 26.0505 58.0119 26.1563C57.651 26.2583 57.2591 26.3094 56.8361 26.3094C56.5044 26.3094 56.1726 26.2656 55.8408 26.1781C55.5091 26.087 55.2064 25.9484 54.933 25.7625C54.6596 25.5729 54.439 25.3323 54.2713 25.0406C54.1072 24.7453 54.0252 24.3935 54.0252 23.9852H55.8736C55.8736 24.1529 55.9192 24.306 56.0104 24.4445C56.1051 24.5794 56.2309 24.687 56.3877 24.7672C56.5445 24.8474 56.714 24.8875 56.8963 24.8875C57.1223 24.8875 57.3137 24.8456 57.4705 24.7617C57.6309 24.6742 57.7531 24.5576 57.8369 24.4117C57.9208 24.2659 57.9627 24.1037 57.9627 23.925C57.9627 23.6552 57.9171 23.4401 57.826 23.2797C57.7385 23.1193 57.6091 23.0026 57.4377 22.9297C57.27 22.8568 57.0676 22.8203 56.8307 22.8203H55.9338Z" fill="white"/>
<ellipse cx="76.2999" cy="22.4" rx="7" ry="7" fill="#58707F"/>
<path d="M79.526 23.0883V24.5102H73.7947L73.6853 23.3836L76.8845 18.2375H78.3392L76.7588 20.8242L75.4463 23.0883H79.526ZM78.722 18.2375V26.2H76.8791V18.2375H78.722Z" fill="white"/>
<ellipse cx="95.9" cy="22.4" rx="7" ry="7" fill="#58707F"/>
<path d="M95.0298 22.6508L93.5642 22.3063L94.0455 18.2375H98.6994V19.6703H95.5494L95.3689 21.2508C95.4564 21.1998 95.6041 21.1396 95.8119 21.0703C96.0233 20.9974 96.2567 20.9609 96.5119 20.9609C96.9056 20.9609 97.2538 21.0211 97.5564 21.1414C97.8626 21.2581 98.1215 21.4313 98.333 21.6609C98.5444 21.887 98.703 22.1659 98.8087 22.4977C98.9181 22.8294 98.9728 23.2086 98.9728 23.6352C98.9728 23.9779 98.9163 24.3096 98.8033 24.6305C98.6939 24.9477 98.5244 25.2339 98.2947 25.4891C98.0686 25.7406 97.7824 25.9412 97.4361 26.0906C97.0897 26.2365 96.6796 26.3094 96.2056 26.3094C95.852 26.3094 95.5074 26.2547 95.172 26.1453C94.8366 26.0359 94.534 25.8792 94.2642 25.675C93.9981 25.4672 93.7866 25.2175 93.6298 24.9258C93.4767 24.6305 93.402 24.3005 93.4056 23.9359H95.2595C95.2705 24.1292 95.316 24.2969 95.3962 24.4391C95.4765 24.5813 95.584 24.6925 95.7189 24.7727C95.8574 24.8492 96.016 24.8875 96.1947 24.8875C96.377 24.8875 96.5283 24.8511 96.6486 24.7781C96.7689 24.7052 96.8637 24.605 96.933 24.4774C97.0022 24.3498 97.0515 24.2039 97.0806 24.0399C97.1098 23.8721 97.1244 23.6953 97.1244 23.5094C97.1244 23.3125 97.1025 23.1357 97.0587 22.9789C97.0186 22.8221 96.953 22.6891 96.8619 22.5797C96.7707 22.4667 96.6522 22.381 96.5064 22.3227C96.3642 22.2643 96.1929 22.2352 95.9923 22.2352C95.7262 22.2352 95.5166 22.2807 95.3634 22.3719C95.2103 22.463 95.0991 22.556 95.0298 22.6508Z" fill="white"/>
<rect x="0.5" y="0.5" width="111" height="43.8" rx="1.5" stroke="#8796A1"/>
</svg>
