<svg width="100" height="80" viewBox="0 0 100 80" fill="none" xmlns="http://www.w3.org/2000/svg">
<g clip-path="url(#clip0_1526_5237)">
<circle cx="28" cy="31" r="3" fill="#58707F"/>
<circle cx="28" cy="40" r="2.5" stroke="#58707F"/>
<circle cx="28" cy="49" r="2.5" stroke="#58707F"/>
<rect x="36" y="11" width="38" height="22.2333" rx="1.45" fill="#58707F"/>
<path d="M61.5257 19.5858L58.3003 16.3164L56.6876 16C56.6876 17.0019 55.8553 17.8456 54.8149 17.8456C53.7744 17.8456 52.9421 17.0019 52.9421 16L51.3294 16.3164L48 19.5858L50.2369 21.8532L51.3294 20.7459V27.39H58.3003V20.7986L59.3408 21.8532L61.5257 19.5858Z" fill="white"/>
<rect x="36" y="38.0667" width="38" height="22.2333" rx="1.45" fill="#58707F"/>
<path d="M61.5257 46.5858L58.3003 43.3164L56.6876 43C56.6876 44.0019 55.8553 44.8456 54.8149 44.8456C53.7744 44.8456 52.9421 44.0019 52.9421 43L51.3294 43.3164L48 46.5858L50.2369 48.8532L51.3294 47.7459V54.39H58.3003V47.7986L59.3408 48.8532L61.5257 46.5858Z" fill="white"/>
<path d="M36 66.5834C36 65.7825 36.6492 65.1334 37.45 65.1334H72.55C73.3508 65.1334 74 65.7825 74 66.5834V69H36V66.5834Z" fill="#58707F"/>
</g>
<defs>
<clipPath id="clip0_1526_5237">
<rect width="100" height="80" fill="white"/>
</clipPath>
</defs>
</svg>
