<svg width="100" height="80" viewBox="0 0 100 80" fill="none" xmlns="http://www.w3.org/2000/svg">
<g clip-path="url(#clip0_1526_5257)">
<path d="M46.3268 37.3871H24.0603C23.4771 37.3871 23 36.91 23 36.3268V14.0603C23 13.4771 23.4771 13 24.0603 13H46.3268C46.91 13 47.3871 13.4771 47.3871 14.0603V36.3268C47.3871 36.91 46.91 37.3871 46.3268 37.3871Z" fill="#58707F"/>
<path d="M42.0855 23.0729L38.7986 19.786L37.1551 19.4679C37.1551 20.4752 36.3068 21.3234 35.2465 21.3234C34.1862 21.3234 33.338 20.4752 33.338 19.4679L31.6945 19.786L28.3015 23.0729L30.5812 25.3526L31.6945 24.2393V30.9192H38.7986V24.2923L39.8589 25.3526L42.0855 23.0729Z" fill="white"/>
<path d="M75.7139 37.3871H53.4474C52.8642 37.3871 52.3871 36.91 52.3871 36.3268V14.0603C52.3871 13.4771 52.8642 13 53.4474 13H75.7139C76.297 13 76.7742 13.4771 76.7742 14.0603V36.3268C76.7742 36.91 76.297 37.3871 75.7139 37.3871Z" fill="#58707F"/>
<path d="M71.4726 23.0729L68.1857 19.786L66.5422 19.4679C66.5422 20.4752 65.6939 21.3234 64.6336 21.3234C63.5733 21.3234 62.7251 20.4752 62.7251 19.4679L61.0816 19.786L57.6886 23.0729L59.9683 25.3526L61.0816 24.2393V30.9192H68.1857V24.2923L69.246 25.3526L71.4726 23.0729Z" fill="white"/>
<path d="M46.3268 66.7742H24.0603C23.4771 66.7742 23 66.297 23 65.7139V43.4474C23 42.8642 23.4771 42.3871 24.0603 42.3871H46.3268C46.91 42.3871 47.3871 42.8642 47.3871 43.4474V65.7139C47.3871 66.297 46.91 66.7742 46.3268 66.7742Z" fill="#58707F"/>
<path d="M42.0855 52.46L38.7986 49.1731L37.1551 48.855C37.1551 49.8623 36.3068 50.7105 35.2465 50.7105C34.1862 50.7105 33.338 49.8623 33.338 48.855L31.6945 49.1731L28.3015 52.46L30.5812 54.7397L31.6945 53.6264V60.3063H38.7986V53.6794L39.8589 54.7397L42.0855 52.46Z" fill="white"/>
<path d="M75.7139 66.7742H53.4474C52.8642 66.7742 52.3871 66.297 52.3871 65.7139V43.4474C52.3871 42.8642 52.8642 42.3871 53.4474 42.3871H75.7139C76.297 42.3871 76.7742 42.8642 76.7742 43.4474V65.7139C76.7742 66.297 76.297 66.7742 75.7139 66.7742Z" fill="#58707F"/>
<path d="M71.4726 52.46L68.1857 49.1731L66.5422 48.855C66.5422 49.8623 65.6939 50.7105 64.6336 50.7105C63.5733 50.7105 62.7251 49.8623 62.7251 48.855L61.0816 49.1731L57.6886 52.46L59.9683 54.7397L61.0816 53.6264V60.3063H68.1857V53.6794L69.246 54.7397L71.4726 52.46Z" fill="white"/>
</g>
<defs>
<clipPath id="clip0_1526_5257">
<rect width="100" height="80" fill="white"/>
</clipPath>
</defs>
</svg>
