<svg width="100" height="80" viewBox="0 0 100 80" fill="none" xmlns="http://www.w3.org/2000/svg">
<path d="M75.5217 68H23.4783C22.1152 68 21 66.8848 21 65.5217V13.4783C21 12.1152 22.1152 11 23.4783 11H75.5217C76.8848 11 78 12.1152 78 13.4783V65.5217C78 66.8848 76.8848 68 75.5217 68Z" fill="#58707F"/>
<path d="M65.6088 34.5435L57.9261 26.8609L54.0848 26.1174C54.0848 28.4718 52.1022 30.4544 49.624 30.4544C47.1457 30.4544 45.1631 28.4718 45.1631 26.1174L41.3218 26.8609L33.3914 34.5435L38.7196 39.8718L41.3218 37.2696V52.8826H57.9261V37.3935L60.4044 39.8718L65.6088 34.5435Z" fill="white"/>
<path d="M70.7236 37L73.8215 40.0978L70.7236 43.1957" stroke="white" stroke-width="1.5" stroke-miterlimit="10" stroke-linecap="round" stroke-linejoin="round"/>
<path d="M28.0978 43.1957L25 40.0978L28.0978 37" stroke="white" stroke-width="1.5" stroke-miterlimit="10" stroke-linecap="round" stroke-linejoin="round"/>
</svg>
