<svg width="100" height="80" viewBox="0 0 100 80" fill="none" xmlns="http://www.w3.org/2000/svg">
<path d="M40 71.2H28C27.4 71.2 27 70.8 27 70.2V58.2C27 57.6 27.4 57.2 28 57.2H40C40.6 57.2 41 57.6 41 58.2V70.2C41 70.8 40.6 71.2 40 71.2Z" fill="#58707F"/>
<path d="M56 71.2H44C43.4 71.2 43 70.8 43 70.2V58.2C43 57.6 43.4 57.2 44 57.2H56C56.6 57.2 57 57.6 57 58.2V70.2C57 70.8 56.6 71.2 56 71.2Z" fill="#58707F"/>
<path d="M72 71.2H60C59.4 71.2 59 70.8 59 70.2V58.2C59 57.6 59.4 57.2 60 57.2H72C72.6 57.2 73 57.6 73 58.2V70.2C73 70.8 72.6 71.2 72 71.2Z" fill="#58707F"/>
<path d="M39 62.7L36.6 60.3L35.4 60.1C35.4 60.8 34.8 61.4 34 61.4C33.2 61.4 32.6 60.8 32.6 60.1L31.4 60.3L29 62.7L30.6 64.3L31.4 63.5V68.3H36.6V63.5L37.4 64.3L39 62.7Z" fill="white"/>
<path d="M55 62.7L52.6 60.3L51.4 60.1C51.4 60.8 50.8 61.4 50 61.4C49.2 61.4 48.6 60.8 48.6 60.1L47.4 60.3L45 62.7L46.6 64.3L47.4 63.5V68.3H52.6V63.5L53.4 64.3L55 62.7Z" fill="white"/>
<path d="M71 62.7L68.6 60.3L67.4 60.1C67.4 60.8 66.8 61.4 66 61.4C65.2 61.4 64.6 60.8 64.6 60.1L63.4 60.3L61 62.7L62.6 64.3L63.4 63.5V68.3H68.6V63.5L69.4 64.3L71 62.7Z" fill="white"/>
<path d="M71 55.2H29C27.9 55.2 27 54.3 27 53.2V11.2C27 10.1 27.9 9.20001 29 9.20001H71C72.1 9.20001 73 10.1 73 11.2V53.2C73 54.3 72.1 55.2 71 55.2Z" fill="#58707F"/>
<path d="M63 28.3L56.8 22.1L53.7 21.5C53.7 23.4 52.1 25 50.1 25C48.1 25 46.5 23.4 46.5 21.5L43.4 22.1L37 28.2L41.3 32.5L43.4 30.4V43H56.8V30.6L58.8 32.6L63 28.3Z" fill="white"/>
<path d="M67.2 35.5C67 35.5 66.8 35.4 66.7 35.3C66.4 35 66.4 34.5 66.7 34.2L68.7 32.2L66.7 30.2C66.4 29.9 66.4 29.4 66.7 29.1C67 28.8 67.5 28.8 67.8 29.1L70.3 31.6C70.6 31.9 70.6 32.4 70.3 32.7L67.8 35.2C67.6 35.4 67.4 35.5 67.2 35.5Z" fill="white"/>
<path d="M32.8 35.5C32.6 35.5 32.4 35.4 32.3 35.3L29.8 32.8C29.5 32.5 29.5 32 29.8 31.7L32.3 29.2C32.6 28.9 33.1 28.9 33.4 29.2C33.7 29.5 33.7 30 33.4 30.3L31.4 32.3L33.4 34.3C33.7 34.6 33.7 35.1 33.4 35.4C33.2 35.4 33 35.5 32.8 35.5Z" fill="white"/>
</svg>
