<svg width="100" height="80" viewBox="0 0 100 80" fill="none" xmlns="http://www.w3.org/2000/svg">
<path d="M40 23H28C27.4 23 27 22.6 27 22V10C27 9.4 27.4 9 28 9H40C40.6 9 41 9.4 41 10V22C41 22.6 40.6 23 40 23Z" fill="#58707F"/>
<path d="M56 23H44C43.4 23 43 22.6 43 22V10C43 9.4 43.4 9 44 9H56C56.6 9 57 9.4 57 10V22C57 22.6 56.6 23 56 23Z" fill="#58707F"/>
<path d="M72 23H60C59.4 23 59 22.6 59 22V10C59 9.4 59.4 9 60 9H72C72.6 9 73 9.4 73 10V22C73 22.6 72.6 23 72 23Z" fill="#58707F"/>
<path d="M39 14.5L36.6 12.1L35.4 11.9C35.4 12.6 34.8 13.2 34 13.2C33.2 13.2 32.6 12.6 32.6 11.9L31.4 12.1L29 14.5L30.6 16.1L31.4 15.3V20.1H36.6V15.3L37.4 16.1L39 14.5Z" fill="white"/>
<path d="M55 14.5L52.6 12.1L51.4 11.9C51.4 12.6 50.8 13.2 50 13.2C49.2 13.2 48.6 12.6 48.6 11.9L47.4 12.1L45 14.5L46.6 16.1L47.4 15.3V20.1H52.6V15.3L53.4 16.1L55 14.5Z" fill="white"/>
<path d="M71 14.5L68.6 12.1L67.4 11.9C67.4 12.6 66.8 13.2 66 13.2C65.2 13.2 64.6 12.6 64.6 11.9L63.4 12.1L61 14.5L62.6 16.1L63.4 15.3V20.1H68.6V15.3L69.4 16.1L71 14.5Z" fill="white"/>
<path d="M71 71H29C27.9 71 27 70.1 27 69V27C27 25.9 27.9 25 29 25H71C72.1 25 73 25.9 73 27V69C73 70.1 72.1 71 71 71Z" fill="#58707F"/>
<path d="M63 44.1L56.8 37.9L53.7 37.3C53.7 39.2 52.1 40.8 50.1 40.8C48.1 40.8 46.5 39.2 46.5 37.3L43.4 37.9L37 44L41.3 48.3L43.4 46.2V58.8H56.8V46.4L58.8 48.4L63 44.1Z" fill="white"/>
<path d="M67.2 51.3C67 51.3 66.8 51.2 66.7 51.1C66.4 50.8 66.4 50.3 66.7 50L68.7 48L66.7 46C66.4 45.7 66.4 45.2 66.7 44.9C67 44.6 67.5 44.6 67.8 44.9L70.3 47.4C70.6 47.7 70.6 48.2 70.3 48.5L67.7 51C67.6 51.2 67.4 51.3 67.2 51.3Z" fill="white"/>
<path d="M32.8 51.3C32.6 51.3 32.4 51.2 32.3 51.1L29.8 48.6C29.5 48.3 29.5 47.8 29.8 47.5L32.3 45C32.6 44.7 33.1 44.7 33.4 45C33.7 45.3 33.7 45.8 33.4 46.1L31.4 48.1L33.4 50.1C33.7 50.4 33.7 50.9 33.4 51.2C33.2 51.2 33 51.3 32.8 51.3Z" fill="white"/>
</svg>
