<svg width="100" height="80" viewBox="0 0 100 80" fill="none" xmlns="http://www.w3.org/2000/svg">
<g clip-path="url(#clip0_1526_5224)">
<rect x="26" y="12.5" width="49" height="30" rx="1.5" fill="#58707F"/>
<path d="M59.6355 25.3475L55.4023 21.1441L53.2857 20.7373C53.2857 22.0254 52.1933 23.1102 50.8278 23.1102C49.4622 23.1102 48.3698 22.0254 48.3698 20.7373L46.2532 21.1441L41.8834 25.3475L44.8193 28.2627L46.2532 26.839V35.3814H55.4023V26.9068L56.7679 28.2627L59.6355 25.3475Z" fill="white"/>
<rect x="26" y="47.5" width="22" height="20" rx="0.75" fill="#58707F"/>
<path d="M42 55.8333L39.6154 53.25L38.4231 53C38.4231 53.7917 37.8077 54.4583 37.0385 54.4583C36.2692 54.4583 35.6538 53.7917 35.6538 53L34.4615 53.25L32 55.8333L33.6538 57.625L34.4615 56.75V62H39.6154V56.7917L40.3846 57.625L42 55.8333Z" fill="white"/>
<rect x="53" y="47.5" width="22" height="20" rx="0.75" fill="#58707F"/>
<path d="M69 55.8333L66.6154 53.25L65.4231 53C65.4231 53.7917 64.8077 54.4583 64.0385 54.4583C63.2692 54.4583 62.6538 53.7917 62.6538 53L61.4615 53.25L59 55.8333L60.6538 57.625L61.4615 56.75V62H66.6154V56.7917L67.3846 57.625L69 55.8333Z" fill="white"/>
</g>
<defs>
<clipPath id="clip0_1526_5224">
<rect width="100" height="80" fill="white"/>
</clipPath>
</defs>
</svg>
