<svg width="100" height="80" viewBox="0 0 100 80" fill="none" xmlns="http://www.w3.org/2000/svg">
<rect x="0.5" y="0.5" width="99" height="79" rx="1.5" stroke="#8796A1"/>
<path d="M76.2174 68.7143H23.7827C22.4094 68.7143 21.2858 67.5907 21.2858 66.2174V13.7826C21.2858 12.4093 22.4094 11.2857 23.7827 11.2857H76.2174C77.5907 11.2857 78.7143 12.4093 78.7143 13.7826V66.2174C78.7143 67.5907 77.5907 68.7143 76.2174 68.7143Z" fill="#8796A1"/>
<path d="M66.2299 33.2584L58.4895 25.518L54.6193 24.769C54.6193 27.141 52.6218 29.1385 50.1249 29.1385C47.628 29.1385 45.6305 27.141 45.6305 24.769L41.7603 25.518L33.7703 33.2584L39.1386 38.6267L41.7603 36.005V51.7354H58.4895V36.1298L60.9864 38.6267L66.2299 33.2584Z" fill="white"/>
<path d="M71.4735 42.372C71.2238 42.372 70.9741 42.2472 70.8493 42.1223C70.4747 41.7478 70.4747 41.1236 70.8493 40.7491L73.3462 38.2522L70.8493 35.7553C70.4747 35.3807 70.4747 34.7565 70.8493 34.382C71.2238 34.0074 71.848 34.0074 72.2226 34.382L75.3437 37.5031C75.7182 37.8776 75.7182 38.5018 75.3437 38.8764L72.2226 41.9975C71.9729 42.2472 71.7232 42.372 71.4735 42.372Z" fill="white"/>
<path d="M28.5269 42.372C28.2772 42.372 28.0275 42.2472 27.9026 42.1224L24.7815 39.0012C24.407 38.6267 24.407 38.0025 24.7815 37.6279L27.9026 34.5068C28.2772 34.1323 28.9014 34.1323 29.2759 34.5068C29.6505 34.8814 29.6505 35.5056 29.2759 35.8801L26.779 38.377L29.2759 40.8739C29.6505 41.2484 29.6505 41.8727 29.2759 42.2472C29.0262 42.2472 28.7765 42.372 28.5269 42.372Z" fill="white"/>
<rect x="29.3334" y="56" width="9.33333" height="9.33333" rx="4.66667" fill="white"/>
<path d="M36.8 59.9835L35.4667 58.8273L34.8 58.7222C34.8 59.0375 34.4667 59.3529 34.0223 59.3529C33.5778 59.3529 33.2445 59.0375 33.2445 58.7222L32.5778 58.8273L31.3556 59.9835L32.1334 60.7192L32.5778 60.2988V62.6111H35.4667V60.2988L35.9111 60.7192L36.8 59.9835Z" fill="#8796A1"/>
<rect x="40" y="56" width="9.33333" height="9.33333" rx="4.66667" fill="white"/>
<path d="M47.4667 59.9835L46.1333 58.8273L45.4667 58.7222C45.4667 59.0375 45.1333 59.3529 44.6889 59.3529C44.2444 59.3529 43.9111 59.0375 43.9111 58.7222L43.2444 58.8273L42.0222 59.9835L42.8 60.7192L43.2444 60.2988V62.6111H46.1333V60.2988L46.5778 60.7192L47.4667 59.9835Z" fill="#8796A1"/>
<rect x="50.6667" y="56" width="9.33333" height="9.33333" rx="4.66667" fill="white"/>
<path d="M58.1334 59.9835L56.8001 58.8273L56.1334 58.7222C56.1334 59.0375 55.8001 59.3529 55.3556 59.3529C54.9112 59.3529 54.5779 59.0375 54.5779 58.7222L53.9112 58.8273L52.689 59.9835L53.4667 60.7192L53.9112 60.2988V62.6111H56.8001V60.2988L57.2445 60.7192L58.1334 59.9835Z" fill="#8796A1"/>
<rect x="61.3334" y="56" width="9.33333" height="9.33333" rx="4.66667" fill="white"/>
<path d="M68.8 59.9835L67.4667 58.8273L66.8 58.7222C66.8 59.0375 66.4667 59.3529 66.0223 59.3529C65.5778 59.3529 65.2445 59.0375 65.2445 58.7222L64.5778 58.8273L63.3556 59.9835L64.1334 60.7192L64.5778 60.2988V62.6111H67.4667V60.2988L67.9111 60.7192L68.8 59.9835Z" fill="#8796A1"/>
<path d="M73.0583 62.3333C72.9159 62.3333 72.9159 62.3333 72.7735 62.1909C72.6311 62.0485 72.6311 61.7637 72.7735 61.6213L73.9127 60.4822L72.7735 59.343C72.6311 59.2006 72.6311 58.9158 72.7735 58.7735C72.9159 58.6311 73.2007 58.6311 73.3431 58.7735L74.7671 60.1974C74.7671 60.1974 74.9095 60.3398 74.9095 60.4822C74.9095 60.6246 74.9095 60.6246 74.7671 60.767L73.3431 62.1909C73.3431 62.3333 73.2007 62.3333 73.0583 62.3333Z" fill="white"/>
<path d="M27.1845 58.6667C27.3269 58.6667 27.3269 58.6667 27.4693 58.809C27.6117 58.9514 27.6117 59.2362 27.4693 59.3786L26.3301 60.5178L27.4693 61.6569C27.6117 61.7993 27.6117 62.0841 27.4693 62.2265C27.3269 62.3689 27.0421 62.3689 26.8997 62.2265L25.4758 60.8026C25.4758 60.8026 25.3334 60.6602 25.3334 60.5178C25.3334 60.3754 25.3334 60.3754 25.4758 60.233L26.8997 58.809C26.8997 58.6667 27.0421 58.6667 27.1845 58.6667Z" fill="white"/>
</svg>
