<svg width="100" height="80" viewBox="0 0 100 80" fill="none" xmlns="http://www.w3.org/2000/svg">
<path d="M63 63H21C19.9 63 19 62.1 19 61V19C19 17.9 19.9 17 21 17H63C64.1 17 65 17.9 65 19V61C65 62.1 64.1 63 63 63Z" fill="#58707F"/>
<path d="M55 36L48.8 29.8L45.7 29.2C45.7 31.1 44.1 32.7 42.1 32.7C40.1 32.7 38.5 31.1 38.5 29.2L35.4 29.8L29 36L33.3 40.3L35.4 38.2V50.8H48.8V38.3L50.8 40.3L55 36Z" fill="white"/>
<path d="M80 31H68C67.4 31 67 30.6 67 30V18C67 17.4 67.4 17 68 17H80C80.6 17 81 17.4 81 18V30C81 30.6 80.6 31 80 31Z" fill="#58707F"/>
<path d="M79 22.5L76.6 20.1L75.4 19.9C75.4 20.6 74.8 21.2 74 21.2C73.2 21.2 72.6 20.6 72.6 19.9L71.4 20.1L69 22.5L70.6 24.1L71.4 23.3V28.1H76.6V23.3L77.4 24.1L79 22.5Z" fill="white"/>
<path d="M80 47H68C67.4 47 67 46.6 67 46V34C67 33.4 67.4 33 68 33H80C80.6 33 81 33.4 81 34V46C81 46.6 80.6 47 80 47Z" fill="#58707F"/>
<path d="M79 38.5L76.6 36.1L75.4 35.9C75.4 36.6 74.8 37.2 74 37.2C73.2 37.2 72.6 36.6 72.6 35.9L71.4 36.1L69 38.5L70.6 40.1L71.4 39.3V44.1H76.6V39.3L77.4 40.1L79 38.5Z" fill="white"/>
<path d="M80 63H68C67.4 63 67 62.6 67 62V50C67 49.4 67.4 49 68 49H80C80.6 49 81 49.4 81 50V62C81 62.6 80.6 63 80 63Z" fill="#58707F"/>
<path d="M79 54.5L76.6 52.1L75.4 51.9C75.4 52.6 74.8 53.2 74 53.2C73.2 53.2 72.6 52.6 72.6 51.9L71.4 52.1L69 54.5L70.6 56.1L71.4 55.3V60.1H76.6V55.3L77.4 56.1L79 54.5Z" fill="white"/>
<path d="M59.2 43.2C59 43.2 58.8 43.1 58.7 43C58.4 42.7 58.4 42.2 58.7 41.9L60.7 39.9L58.7 37.9C58.4 37.6 58.4 37.1 58.7 36.8C59 36.5 59.5 36.5 59.8 36.8L62.3 39.3C62.6 39.6 62.6 40.1 62.3 40.4L59.7 43C59.6 43.2 59.4 43.2 59.2 43.2Z" fill="white"/>
<path d="M24.8 43.2C24.6 43.2 24.4 43.1 24.3 43L21.8 40.5C21.5 40.2 21.5 39.7 21.8 39.4L24.3 36.9C24.6 36.6 25.1 36.6 25.4 36.9C25.7 37.2 25.7 37.7 25.4 38L23.4 40L25.4 42C25.7 42.3 25.7 42.8 25.4 43.1C25.2 43.2 25 43.2 24.8 43.2Z" fill="white"/>
</svg>
