<svg width="100" height="80" viewBox="0 0 100 80" fill="none" xmlns="http://www.w3.org/2000/svg">
<path d="M32 31H20C19.4 31 19 30.6 19 30V18C19 17.4 19.4 17 20 17H32C32.6 17 33 17.4 33 18V30C33 30.6 32.6 31 32 31Z" fill="#58707F"/>
<path d="M31 22.5L28.6 20.1L27.4 19.9C27.4 20.6 26.8 21.2 26 21.2C25.2 21.2 24.6 20.6 24.6 19.9L23.4 20.1L21 22.5L22.6 24.1L23.4 23.3V28.1H28.6V23.3L29.4 24.1L31 22.5Z" fill="white"/>
<path d="M32 47H20C19.4 47 19 46.6 19 46V34C19 33.4 19.4 33 20 33H32C32.6 33 33 33.4 33 34V46C33 46.6 32.6 47 32 47Z" fill="#58707F"/>
<path d="M31 38.5L28.6 36.1L27.4 35.9C27.4 36.6 26.8 37.2 26 37.2C25.2 37.2 24.6 36.6 24.6 35.9L23.4 36.1L21 38.5L22.6 40.1L23.4 39.3V44.1H28.6V39.3L29.4 40.1L31 38.5Z" fill="white"/>
<path d="M32 63H20C19.4 63 19 62.6 19 62V50C19 49.4 19.4 49 20 49H32C32.6 49 33 49.4 33 50V62C33 62.6 32.6 63 32 63Z" fill="#58707F"/>
<path d="M31 54.5L28.6 52.1L27.4 51.9C27.4 52.6 26.8 53.2 26 53.2C25.2 53.2 24.6 52.6 24.6 51.9L23.4 52.1L21 54.5L22.6 56.1L23.4 55.3V60.1H28.6V55.3L29.4 56.1L31 54.5Z" fill="white"/>
<path d="M79 63H37C35.9 63 35 62.1 35 61V19C35 17.9 35.9 17 37 17H79C80.1 17 81 17.9 81 19V61C81 62.1 80.1 63 79 63Z" fill="#58707F"/>
<path d="M71 36L64.8 29.8L61.7 29.2C61.7 31.1 60.1 32.7 58.1 32.7C56.1 32.7 54.5 31.1 54.5 29.2L51.4 29.8L45 36L49.3 40.3L51.4 38.2V50.8H64.8V38.3L66.8 40.3L71 36Z" fill="white"/>
<path d="M75.2 43.2C75 43.2 74.8 43.1 74.7 43C74.4 42.7 74.4 42.2 74.7 41.9L76.7 39.9L74.7 37.9C74.4 37.6 74.4 37.1 74.7 36.8C75 36.5 75.5 36.5 75.8 36.8L78.3 39.3C78.6 39.6 78.6 40.1 78.3 40.4L75.7 43C75.6 43.2 75.4 43.2 75.2 43.2Z" fill="white"/>
<path d="M40.8 43.2C40.6 43.2 40.4 43.1 40.3 43L37.8 40.5C37.5 40.2 37.5 39.7 37.8 39.4L40.3 36.9C40.6 36.6 41.1 36.6 41.4 36.9C41.7 37.2 41.7 37.7 41.4 38L39.4 40L41.4 42C41.7 42.3 41.7 42.8 41.4 43.1C41.2 43.2 41 43.2 40.8 43.2Z" fill="white"/>
</svg>
